<svg xmlns="http://www.w3.org/2000/svg" version="1.1" xmlns:xlink="http://www.w3.org/1999/xlink" xmlns:svgjs="http://svgjs.dev/svgjs" width="48" height="48" viewBox="0 0 1000 1000"><rect width="1000" height="1000" fill="#000000"></rect><g transform="matrix(0.7,0,0,0.7,150,281.25)"><svg viewBox="0 0 512 320" data-background-color="#f0cf90" preserveAspectRatio="xMidYMid meet" height="625" width="1000" xmlns="http://www.w3.org/2000/svg" xmlns:xlink="http://www.w3.org/1999/xlink"><g id="tight-bounds" transform="matrix(1,0,0,1,0,0)"><svg viewBox="0 0 512 320" height="320" width="512"><g><svg></svg></g><g><svg viewBox="0 0 512 320" height="320" width="512"><g><path xmlns="http://www.w3.org/2000/svg" d="M96 160c0-88.366 71.634-160 160-160 88.366 0 160 71.634 160 160 0 88.366-71.634 160-160 160-88.366 0-160-71.634-160-160z" fill="#ffffff" fill-rule="nonzero" stroke="none" stroke-width="1" stroke-linecap="butt" stroke-linejoin="miter" stroke-miterlimit="10" stroke-dasharray="" stroke-dashoffset="0" font-family="none" font-weight="none" font-size="none" text-anchor="none" style="mix-blend-mode: normal" data-fill-palette-color="tertiary"></path></g><g transform="matrix(1,0,0,1,153.6,132.6948370966107)"><svg viewBox="0 0 204.8 54.610325806778576" height="54.610325806778576" width="204.8"><g><svg viewBox="0 0 328.1026460908946 87.48922070844687" height="54.610325806778576" width="204.8"><g><rect width="2.415573888209265" height="87.48922070844687" x="114.56358034873435" y="0" fill="#ffffff" opacity="1" stroke-width="0" stroke="transparent" fill-opacity="1" class="rect-o-0" data-fill-palette-color="primary" rx="1%" id="o-0" data-palette-color="#000000"></rect></g><g transform="matrix(1,0,0,1,123.30264609089457,0.2176348773841923)"><svg viewBox="0 0 204.8 87.05395095367848" height="87.05395095367848" width="204.8"><g id="textblocktransform"><svg viewBox="0 0 204.8 87.05395095367848" height="87.05395095367848" width="204.8" id="textblock"><g><svg viewBox="0 0 204.8 87.05395095367848" height="87.05395095367848" width="204.8"><g transform="matrix(1,0,0,1,0,0)"><svg width="204.8" viewBox="0.6999999284744263 -35.5 276.3499755859375 114" height="87.05395095367848" data-palette-color="#f0cf90"><svg></svg><svg></svg><svg></svg><g class="wordmark-text-0" data-fill-palette-color="quaternary" id="text-0"><path xmlns="http://www.w3.org/2000/svg" d="M6.1 0h-4.35c-0.267 0-0.507-0.1-0.72-0.3-0.22-0.2-0.33-0.45-0.33-0.75v0c0-0.133 0.033-0.283 0.1-0.45v0l12.05-32.25c0.1-0.333 0.293-0.627 0.58-0.88 0.28-0.247 0.67-0.37 1.17-0.37v0h5.45c0.5 0 0.883 0.123 1.15 0.37 0.267 0.253 0.467 0.547 0.6 0.88v0l12.05 32.25c0.033 0.167 0.05 0.317 0.05 0.45v0c0 0.3-0.1 0.55-0.3 0.75-0.2 0.2-0.433 0.3-0.7 0.3v0h-4.35c-0.467 0-0.807-0.11-1.02-0.33-0.22-0.213-0.363-0.42-0.43-0.62v0l-2.35-6.1h-14.85l-2.35 6.1c-0.067 0.2-0.207 0.407-0.42 0.62-0.22 0.22-0.563 0.33-1.03 0.33zM17.3-28.25l-5.65 15.45h11.35zM54.25 0h-5.5c-0.533 0-0.95-0.133-1.25-0.4-0.3-0.267-0.517-0.6-0.65-1v0l-10.7-32.1c-0.067-0.167-0.1-0.317-0.1-0.45v0c0-0.3 0.1-0.55 0.3-0.75 0.2-0.2 0.45-0.3 0.75-0.3v0h4.4c0.467 0 0.827 0.123 1.08 0.37 0.247 0.253 0.403 0.497 0.47 0.73v0l8.45 25.75 8.45-25.75c0.067-0.233 0.223-0.477 0.47-0.73 0.253-0.247 0.613-0.37 1.08-0.37v0h4.4c0.267 0 0.51 0.1 0.73 0.3 0.213 0.2 0.32 0.45 0.32 0.75v0c0 0.133-0.033 0.283-0.1 0.45v0l-10.7 32.1c-0.133 0.4-0.35 0.733-0.65 1-0.3 0.267-0.717 0.4-1.25 0.4zM78.15 0h-4.7c-0.333 0-0.617-0.117-0.85-0.35-0.233-0.233-0.35-0.517-0.35-0.85v0-32.6c0-0.333 0.117-0.617 0.35-0.85 0.233-0.233 0.517-0.35 0.85-0.35v0h4.7c0.367 0 0.657 0.117 0.87 0.35 0.22 0.233 0.33 0.517 0.33 0.85v0 32.6c0 0.333-0.11 0.617-0.33 0.85-0.213 0.233-0.503 0.35-0.87 0.35zM99.35 0.5v0c-3.1 0-5.69-0.46-7.77-1.38-2.087-0.913-3.67-2.113-4.75-3.6-1.087-1.48-1.663-3.037-1.73-4.67v0c0-0.3 0.1-0.55 0.3-0.75 0.2-0.2 0.45-0.3 0.75-0.3v0h4.45c0.433 0 0.76 0.09 0.98 0.27 0.213 0.187 0.403 0.413 0.57 0.68v0c0.2 0.633 0.583 1.257 1.15 1.87 0.567 0.62 1.343 1.13 2.33 1.53 0.98 0.4 2.22 0.6 3.72 0.6v0c2.4 0 4.19-0.4 5.37-1.2 1.187-0.8 1.78-1.883 1.78-3.25v0c0-0.967-0.317-1.743-0.95-2.33-0.633-0.58-1.607-1.113-2.92-1.6-1.32-0.48-3.063-0.987-5.23-1.52v0c-2.5-0.6-4.59-1.323-6.27-2.17-1.687-0.853-2.953-1.93-3.8-3.23-0.853-1.3-1.28-2.95-1.28-4.95v0c0-1.933 0.527-3.65 1.58-5.15 1.047-1.5 2.547-2.683 4.5-3.55 1.947-0.867 4.27-1.3 6.97-1.3v0c2.167 0 4.083 0.29 5.75 0.87 1.667 0.587 3.05 1.353 4.15 2.3 1.1 0.953 1.943 1.97 2.53 3.05 0.58 1.087 0.887 2.147 0.92 3.18v0c0 0.267-0.093 0.507-0.28 0.72-0.18 0.22-0.437 0.33-0.77 0.33v0h-4.65c-0.267 0-0.533-0.067-0.8-0.2-0.267-0.133-0.483-0.383-0.65-0.75v0c-0.2-1.033-0.85-1.917-1.95-2.65-1.1-0.733-2.517-1.1-4.25-1.1v0c-1.8 0-3.25 0.333-4.35 1-1.1 0.667-1.65 1.7-1.65 3.1v0c0 0.933 0.273 1.707 0.82 2.32 0.553 0.62 1.44 1.163 2.66 1.63 1.213 0.467 2.82 0.967 4.82 1.5v0c2.833 0.633 5.15 1.367 6.95 2.2 1.8 0.833 3.117 1.89 3.95 3.17 0.833 1.287 1.25 2.913 1.25 4.88v0c0 2.2-0.59 4.073-1.77 5.62-1.187 1.553-2.847 2.747-4.98 3.58-2.133 0.833-4.617 1.25-7.45 1.25zM136.65 0h-4.7c-0.333 0-0.617-0.117-0.85-0.35-0.233-0.233-0.35-0.517-0.35-0.85v0-32.6c0-0.333 0.117-0.617 0.35-0.85 0.233-0.233 0.517-0.35 0.85-0.35v0h4.7c0.367 0 0.66 0.117 0.88 0.35 0.213 0.233 0.32 0.517 0.32 0.85v0 32.6c0 0.333-0.107 0.617-0.32 0.85-0.22 0.233-0.513 0.35-0.88 0.35zM159.2 0h-4.6c-0.333 0-0.617-0.117-0.85-0.35-0.233-0.233-0.35-0.517-0.35-0.85v0-27.65h-9.25c-0.333 0-0.617-0.117-0.85-0.35-0.233-0.233-0.35-0.517-0.35-0.85v0-3.7c0-0.367 0.117-0.667 0.35-0.9 0.233-0.233 0.517-0.35 0.85-0.35v0h25.5c0.367 0 0.667 0.117 0.9 0.35 0.233 0.233 0.35 0.533 0.35 0.9v0 3.7c0 0.333-0.117 0.617-0.35 0.85-0.233 0.233-0.533 0.35-0.9 0.35v0h-9.2v27.65c0 0.333-0.117 0.617-0.35 0.85-0.233 0.233-0.533 0.35-0.9 0.35z" fill="#000000" fill-rule="nonzero" stroke="none" stroke-width="1" stroke-linecap="butt" stroke-linejoin="miter" stroke-miterlimit="10" stroke-dasharray="" stroke-dashoffset="0" font-family="none" font-weight="none" font-size="none" text-anchor="none" style="mix-blend-mode: normal" data-fill-palette-color="quaternary" opacity="1"></path><path xmlns="http://www.w3.org/2000/svg" d="M16.05 39.5v0c-3.1 0-5.69-0.46-7.77-1.38-2.087-0.913-3.67-2.113-4.75-3.6-1.087-1.48-1.663-3.037-1.73-4.67v0c0-0.3 0.1-0.55 0.3-0.75 0.2-0.2 0.45-0.3 0.75-0.3v0h4.45c0.433 0 0.76 0.09 0.98 0.27 0.213 0.187 0.403 0.413 0.57 0.68v0c0.2 0.633 0.583 1.257 1.15 1.87 0.567 0.62 1.343 1.13 2.33 1.53 0.98 0.4 2.22 0.6 3.72 0.6v0c2.4 0 4.193-0.4 5.38-1.2 1.18-0.8 1.77-1.883 1.77-3.25v0c0-0.967-0.317-1.743-0.95-2.33-0.633-0.58-1.607-1.113-2.92-1.6-1.32-0.48-3.063-0.987-5.23-1.52v0c-2.5-0.6-4.59-1.323-6.27-2.17-1.687-0.853-2.953-1.93-3.8-3.23-0.853-1.3-1.28-2.95-1.28-4.95v0c0-1.933 0.527-3.65 1.58-5.15 1.047-1.5 2.547-2.683 4.5-3.55 1.947-0.867 4.27-1.3 6.97-1.3v0c2.167 0 4.083 0.29 5.75 0.87 1.667 0.587 3.05 1.353 4.15 2.3 1.1 0.953 1.943 1.97 2.53 3.05 0.58 1.087 0.887 2.147 0.92 3.18v0c0 0.267-0.09 0.507-0.27 0.72-0.187 0.22-0.447 0.33-0.78 0.33v0h-4.65c-0.267 0-0.533-0.067-0.8-0.2-0.267-0.133-0.483-0.383-0.65-0.75v0c-0.2-1.033-0.85-1.917-1.95-2.65-1.1-0.733-2.517-1.1-4.25-1.1v0c-1.8 0-3.25 0.333-4.35 1-1.1 0.667-1.65 1.7-1.65 3.1v0c0 0.933 0.277 1.707 0.83 2.32 0.547 0.62 1.43 1.163 2.65 1.63 1.213 0.467 2.82 0.967 4.82 1.5v0c2.833 0.633 5.15 1.367 6.95 2.2 1.8 0.833 3.117 1.89 3.95 3.17 0.833 1.287 1.25 2.913 1.25 4.88v0c0 2.2-0.59 4.073-1.77 5.62-1.187 1.553-2.847 2.747-4.98 3.58-2.133 0.833-4.617 1.25-7.45 1.25zM49.45 39.5v0c-2.967 0-5.517-0.493-7.65-1.48-2.133-0.98-3.8-2.497-5-4.55-1.2-2.047-1.85-4.603-1.95-7.67v0c-0.033-1.433-0.05-2.85-0.05-4.25 0-1.4 0.017-2.833 0.05-4.3v0c0.1-3.033 0.767-5.567 2-7.6 1.233-2.033 2.927-3.567 5.08-4.6 2.147-1.033 4.653-1.55 7.52-1.55v0c2.867 0 5.383 0.517 7.55 1.55 2.167 1.033 3.867 2.567 5.1 4.6 1.233 2.033 1.9 4.567 2 7.6v0c0.067 1.467 0.1 2.9 0.1 4.3 0 1.4-0.033 2.817-0.1 4.25v0c-0.1 3.067-0.75 5.623-1.95 7.67-1.2 2.053-2.873 3.57-5.02 4.55-2.153 0.987-4.713 1.48-7.68 1.48zM49.45 33.75v0c2.167 0 3.933-0.643 5.3-1.93 1.367-1.28 2.1-3.37 2.2-6.27v0c0.067-1.467 0.1-2.827 0.1-4.08 0-1.247-0.033-2.587-0.1-4.02v0c-0.067-1.933-0.423-3.51-1.07-4.73-0.653-1.213-1.53-2.097-2.63-2.65-1.1-0.547-2.367-0.82-3.8-0.82v0c-1.4 0-2.65 0.273-3.75 0.82-1.1 0.553-1.973 1.437-2.62 2.65-0.653 1.22-1.013 2.797-1.08 4.73v0c-0.033 1.433-0.05 2.773-0.05 4.02 0 1.253 0.017 2.613 0.05 4.08v0c0.1 2.9 0.833 4.99 2.2 6.27 1.367 1.287 3.117 1.93 5.25 1.93zM93.65 39h-21.7c-0.333 0-0.617-0.117-0.85-0.35-0.233-0.233-0.35-0.517-0.35-0.85v0-32.6c0-0.333 0.117-0.617 0.35-0.85 0.233-0.233 0.517-0.35 0.85-0.35v0h4.65c0.333 0 0.617 0.117 0.85 0.35 0.233 0.233 0.35 0.517 0.35 0.85v0 27.85h15.85c0.367 0 0.667 0.117 0.9 0.35 0.233 0.233 0.35 0.533 0.35 0.9v0 3.5c0 0.333-0.117 0.617-0.35 0.85-0.233 0.233-0.533 0.35-0.9 0.35zM113.7 39.5v0c-2.9 0-5.417-0.493-7.55-1.48-2.133-0.98-3.783-2.497-4.95-4.55-1.167-2.047-1.75-4.67-1.75-7.87v0-20.35c0-0.367 0.117-0.667 0.35-0.9 0.233-0.233 0.517-0.35 0.85-0.35v0h4.55c0.367 0 0.657 0.117 0.87 0.35 0.22 0.233 0.33 0.533 0.33 0.9v0 20.35c0 2.733 0.65 4.757 1.95 6.07 1.3 1.32 3.083 1.98 5.35 1.98v0c2.267 0 4.04-0.66 5.32-1.98 1.287-1.313 1.93-3.337 1.93-6.07v0-20.35c0-0.367 0.117-0.667 0.35-0.9 0.233-0.233 0.533-0.35 0.9-0.35v0h4.5c0.367 0 0.657 0.117 0.87 0.35 0.22 0.233 0.33 0.533 0.33 0.9v0 20.35c0 3.2-0.577 5.823-1.73 7.87-1.147 2.053-2.78 3.57-4.9 4.55-2.113 0.987-4.637 1.48-7.57 1.48zM148.9 39h-4.6c-0.333 0-0.617-0.117-0.85-0.35-0.233-0.233-0.35-0.517-0.35-0.85v0-27.65h-9.25c-0.333 0-0.617-0.117-0.85-0.35-0.233-0.233-0.35-0.517-0.35-0.85v0-3.7c0-0.367 0.117-0.667 0.35-0.9 0.233-0.233 0.517-0.35 0.85-0.35v0h25.5c0.367 0 0.667 0.117 0.9 0.35 0.233 0.233 0.35 0.533 0.35 0.9v0 3.7c0 0.333-0.117 0.617-0.35 0.85-0.233 0.233-0.533 0.35-0.9 0.35v0h-9.2v27.65c0 0.333-0.117 0.617-0.35 0.85-0.233 0.233-0.533 0.35-0.9 0.35zM171.55 39h-4.7c-0.333 0-0.617-0.117-0.85-0.35-0.233-0.233-0.35-0.517-0.35-0.85v0-32.6c0-0.333 0.117-0.617 0.35-0.85 0.233-0.233 0.517-0.35 0.85-0.35v0h4.7c0.367 0 0.66 0.117 0.88 0.35 0.213 0.233 0.32 0.517 0.32 0.85v0 32.6c0 0.333-0.107 0.617-0.32 0.85-0.22 0.233-0.513 0.35-0.88 0.35zM194.05 39.5v0c-2.967 0-5.517-0.493-7.65-1.48-2.133-0.98-3.8-2.497-5-4.55-1.2-2.047-1.85-4.603-1.95-7.67v0c-0.033-1.433-0.05-2.85-0.05-4.25 0-1.4 0.017-2.833 0.05-4.3v0c0.1-3.033 0.767-5.567 2-7.6 1.233-2.033 2.923-3.567 5.07-4.6 2.153-1.033 4.663-1.55 7.53-1.55v0c2.867 0 5.383 0.517 7.55 1.55 2.167 1.033 3.867 2.567 5.1 4.6 1.233 2.033 1.9 4.567 2 7.6v0c0.067 1.467 0.1 2.9 0.1 4.3 0 1.4-0.033 2.817-0.1 4.25v0c-0.1 3.067-0.75 5.623-1.95 7.67-1.2 2.053-2.877 3.57-5.03 4.55-2.147 0.987-4.703 1.48-7.67 1.48zM194.05 33.75v0c2.167 0 3.933-0.643 5.3-1.93 1.367-1.28 2.1-3.37 2.2-6.27v0c0.067-1.467 0.1-2.827 0.1-4.08 0-1.247-0.033-2.587-0.1-4.02v0c-0.067-1.933-0.427-3.51-1.08-4.73-0.647-1.213-1.52-2.097-2.62-2.65-1.1-0.547-2.367-0.82-3.8-0.82v0c-1.4 0-2.65 0.273-3.75 0.82-1.1 0.553-1.977 1.437-2.63 2.65-0.647 1.22-1.003 2.797-1.07 4.73v0c-0.033 1.433-0.05 2.773-0.05 4.02 0 1.253 0.017 2.613 0.05 4.08v0c0.1 2.9 0.833 4.99 2.2 6.27 1.367 1.287 3.117 1.93 5.25 1.93zM220.75 39h-4.2c-0.333 0-0.617-0.117-0.85-0.35-0.233-0.233-0.35-0.517-0.35-0.85v0-32.55c0-0.367 0.117-0.667 0.35-0.9 0.233-0.233 0.517-0.35 0.85-0.35v0h3.85c0.467 0 0.807 0.107 1.02 0.32 0.22 0.22 0.363 0.38 0.43 0.48v0l14.4 22.4v-21.95c0-0.367 0.107-0.667 0.32-0.9 0.22-0.233 0.513-0.35 0.88-0.35v0h4.2c0.367 0 0.667 0.117 0.9 0.35 0.233 0.233 0.35 0.533 0.35 0.9v0 32.5c0 0.367-0.117 0.667-0.35 0.9-0.233 0.233-0.517 0.35-0.85 0.35v0h-3.9c-0.467 0-0.8-0.117-1-0.35-0.2-0.233-0.35-0.383-0.45-0.45v0l-14.35-21.9v21.5c0 0.333-0.117 0.617-0.35 0.85-0.233 0.233-0.533 0.35-0.9 0.35zM262.85 39.5v0c-3.1 0-5.693-0.46-7.78-1.38-2.08-0.913-3.663-2.113-4.75-3.6-1.08-1.48-1.653-3.037-1.72-4.67v0c0-0.3 0.1-0.55 0.3-0.75 0.2-0.2 0.45-0.3 0.75-0.3v0h4.45c0.433 0 0.757 0.09 0.97 0.27 0.22 0.187 0.413 0.413 0.58 0.68v0c0.2 0.633 0.583 1.257 1.15 1.87 0.567 0.62 1.343 1.13 2.33 1.53 0.98 0.4 2.22 0.6 3.72 0.6v0c2.4 0 4.19-0.4 5.37-1.2 1.187-0.8 1.78-1.883 1.78-3.25v0c0-0.967-0.317-1.743-0.95-2.33-0.633-0.58-1.607-1.113-2.92-1.6-1.32-0.48-3.063-0.987-5.23-1.52v0c-2.5-0.6-4.593-1.323-6.28-2.17-1.68-0.853-2.947-1.93-3.8-3.23-0.847-1.3-1.27-2.95-1.27-4.95v0c0-1.933 0.523-3.65 1.57-5.15 1.053-1.5 2.553-2.683 4.5-3.55 1.953-0.867 4.28-1.3 6.98-1.3v0c2.167 0 4.083 0.29 5.75 0.87 1.667 0.587 3.05 1.353 4.15 2.3 1.1 0.953 1.94 1.97 2.52 3.05 0.587 1.087 0.897 2.147 0.93 3.18v0c0 0.267-0.093 0.507-0.28 0.72-0.18 0.22-0.437 0.33-0.77 0.33v0h-4.65c-0.267 0-0.533-0.067-0.8-0.2-0.267-0.133-0.483-0.383-0.65-0.75v0c-0.2-1.033-0.85-1.917-1.95-2.65-1.1-0.733-2.517-1.1-4.25-1.1v0c-1.8 0-3.25 0.333-4.35 1-1.1 0.667-1.65 1.7-1.65 3.1v0c0 0.933 0.273 1.707 0.82 2.32 0.553 0.62 1.437 1.163 2.65 1.63 1.22 0.467 2.83 0.967 4.83 1.5v0c2.833 0.633 5.15 1.367 6.95 2.2 1.8 0.833 3.117 1.89 3.95 3.17 0.833 1.287 1.25 2.913 1.25 4.88v0c0 2.2-0.593 4.073-1.78 5.62-1.18 1.553-2.837 2.747-4.97 3.58-2.133 0.833-4.617 1.25-7.45 1.25z" fill="#000000" fill-rule="nonzero" stroke="none" stroke-width="1" stroke-linecap="butt" stroke-linejoin="miter" stroke-miterlimit="10" stroke-dasharray="" stroke-dashoffset="0" font-family="none" font-weight="none" font-size="none" text-anchor="none" style="mix-blend-mode: normal" data-fill-palette-color="quaternary" opacity="1"></path><path xmlns="http://www.w3.org/2000/svg" d="M17.85 78.5v0c-2.9 0-5.417-0.493-7.55-1.48-2.133-0.98-3.783-2.497-4.95-4.55-1.167-2.047-1.75-4.67-1.75-7.87v0-20.35c0-0.367 0.117-0.667 0.35-0.9 0.233-0.233 0.517-0.35 0.85-0.35v0h4.55c0.367 0 0.66 0.117 0.88 0.35 0.213 0.233 0.32 0.533 0.32 0.9v0 20.35c0 2.733 0.65 4.757 1.95 6.07 1.3 1.32 3.083 1.98 5.35 1.98v0c2.267 0 4.043-0.66 5.33-1.98 1.28-1.313 1.92-3.337 1.92-6.07v0-20.35c0-0.367 0.117-0.667 0.35-0.9 0.233-0.233 0.533-0.35 0.9-0.35v0h4.5c0.367 0 0.66 0.117 0.88 0.35 0.213 0.233 0.32 0.533 0.32 0.9v0 20.35c0 3.2-0.573 5.823-1.72 7.87-1.153 2.053-2.787 3.57-4.9 4.55-2.12 0.987-4.647 1.48-7.58 1.48zM53.15 78.5v0c-3.067 0-5.673-0.533-7.82-1.6-2.153-1.067-3.823-2.61-5.01-4.63-1.18-2.013-1.82-4.42-1.92-7.22v0c-0.033-1.433-0.05-2.973-0.05-4.62 0-1.653 0.017-3.213 0.05-4.68v0c0.1-2.767 0.74-5.133 1.92-7.1 1.187-1.967 2.873-3.483 5.06-4.55 2.18-1.067 4.77-1.6 7.77-1.6v0c2.433 0 4.567 0.327 6.4 0.98 1.833 0.647 3.36 1.48 4.58 2.5 1.213 1.013 2.13 2.103 2.75 3.27 0.613 1.167 0.937 2.25 0.97 3.25v0c0.033 0.3-0.05 0.55-0.25 0.75-0.2 0.2-0.467 0.3-0.8 0.3v0h-5.15c-0.333 0-0.583-0.067-0.75-0.2-0.167-0.133-0.317-0.333-0.45-0.6v0c-0.267-0.7-0.683-1.393-1.25-2.08-0.567-0.68-1.333-1.253-2.3-1.72-0.967-0.467-2.217-0.7-3.75-0.7v0c-2.267 0-4.073 0.6-5.42 1.8-1.353 1.2-2.08 3.183-2.18 5.95v0c-0.1 2.9-0.1 5.833 0 8.8v0c0.1 2.833 0.84 4.867 2.22 6.1 1.387 1.233 3.213 1.85 5.48 1.85v0c1.5 0 2.84-0.267 4.02-0.8 1.187-0.533 2.123-1.367 2.81-2.5 0.68-1.133 1.02-2.583 1.02-4.35v0-1.55h-6.1c-0.333 0-0.617-0.117-0.85-0.35-0.233-0.233-0.35-0.533-0.35-0.9v0-2.65c0-0.367 0.117-0.667 0.35-0.9 0.233-0.233 0.517-0.35 0.85-0.35v0h11.95c0.367 0 0.66 0.117 0.88 0.35 0.213 0.233 0.32 0.533 0.32 0.9v0 5.25c0 2.8-0.607 5.217-1.82 7.25-1.22 2.033-2.953 3.6-5.2 4.7-2.253 1.1-4.913 1.65-7.98 1.65zM76.75 78h-4.35c-0.267 0-0.507-0.1-0.72-0.3-0.22-0.2-0.33-0.45-0.33-0.75v0c0-0.133 0.033-0.283 0.1-0.45v0l12.05-32.25c0.1-0.333 0.293-0.627 0.58-0.88 0.28-0.247 0.67-0.37 1.17-0.37v0h5.45c0.5 0 0.883 0.123 1.15 0.37 0.267 0.253 0.467 0.547 0.6 0.88v0l12.05 32.25c0.033 0.167 0.05 0.317 0.05 0.45v0c0 0.3-0.1 0.55-0.3 0.75-0.2 0.2-0.433 0.3-0.7 0.3v0h-4.35c-0.467 0-0.807-0.11-1.02-0.33-0.22-0.213-0.363-0.42-0.43-0.62v0l-2.35-6.1h-14.85l-2.35 6.1c-0.067 0.2-0.207 0.407-0.42 0.62-0.22 0.22-0.563 0.33-1.03 0.33zM87.95 49.75l-5.65 15.45h11.35zM114.6 78h-4.2c-0.333 0-0.617-0.117-0.85-0.35-0.233-0.233-0.35-0.517-0.35-0.85v0-32.55c0-0.367 0.117-0.667 0.35-0.9 0.233-0.233 0.517-0.35 0.85-0.35v0h3.85c0.467 0 0.81 0.107 1.03 0.32 0.213 0.22 0.353 0.38 0.42 0.48v0l14.4 22.4v-21.95c0-0.367 0.11-0.667 0.33-0.9 0.213-0.233 0.503-0.35 0.87-0.35v0h4.2c0.367 0 0.667 0.117 0.9 0.35 0.233 0.233 0.35 0.533 0.35 0.9v0 32.5c0 0.367-0.117 0.667-0.35 0.9-0.233 0.233-0.517 0.35-0.85 0.35v0h-3.9c-0.467 0-0.8-0.117-1-0.35-0.2-0.233-0.35-0.383-0.45-0.45v0l-14.35-21.9v21.5c0 0.333-0.117 0.617-0.35 0.85-0.233 0.233-0.533 0.35-0.9 0.35zM158.2 78h-12.45c-0.333 0-0.617-0.117-0.85-0.35-0.233-0.233-0.35-0.517-0.35-0.85v0-32.55c0-0.367 0.117-0.667 0.35-0.9 0.233-0.233 0.517-0.35 0.85-0.35v0h12.2c3.367 0 6.143 0.517 8.33 1.55 2.18 1.033 3.83 2.567 4.95 4.6 1.113 2.033 1.687 4.517 1.72 7.45v0c0.067 1.467 0.1 2.767 0.1 3.9 0 1.133-0.033 2.417-0.1 3.85v0c-0.067 3.1-0.633 5.657-1.7 7.67-1.067 2.02-2.673 3.52-4.82 4.5-2.153 0.987-4.897 1.48-8.23 1.48zM151.5 48.75v23.5h6.45c1.867 0 3.383-0.267 4.55-0.8 1.167-0.533 2.027-1.393 2.58-2.58 0.547-1.18 0.837-2.737 0.87-4.67v0c0.033-1 0.06-1.877 0.08-2.63 0.013-0.747 0.013-1.497 0-2.25-0.02-0.747-0.047-1.603-0.08-2.57v0c-0.067-2.733-0.75-4.75-2.05-6.05-1.3-1.3-3.367-1.95-6.2-1.95v0zM181.9 78h-4.35c-0.267 0-0.507-0.1-0.72-0.3-0.22-0.2-0.33-0.45-0.33-0.75v0c0-0.133 0.033-0.283 0.1-0.45v0l12.05-32.25c0.1-0.333 0.293-0.627 0.58-0.88 0.28-0.247 0.67-0.37 1.17-0.37v0h5.45c0.5 0 0.883 0.123 1.15 0.37 0.267 0.253 0.467 0.547 0.6 0.88v0l12.05 32.25c0.033 0.167 0.05 0.317 0.05 0.45v0c0 0.3-0.1 0.55-0.3 0.75-0.2 0.2-0.433 0.3-0.7 0.3v0h-4.35c-0.467 0-0.807-0.11-1.02-0.33-0.22-0.213-0.363-0.42-0.43-0.62v0l-2.35-6.1h-14.85l-2.35 6.1c-0.067 0.2-0.207 0.407-0.42 0.62-0.22 0.22-0.563 0.33-1.03 0.33zM193.1 49.75l-5.65 15.45h11.35z" fill="#000000" fill-rule="nonzero" stroke="none" stroke-width="1" stroke-linecap="butt" stroke-linejoin="miter" stroke-miterlimit="10" stroke-dasharray="" stroke-dashoffset="0" font-family="none" font-weight="none" font-size="none" text-anchor="none" style="mix-blend-mode: normal" data-fill-palette-color="quaternary" opacity="1"></path></g></svg></g></svg></g></svg></g></svg></g><g transform="matrix(1,0,0,1,0,0.2176348773841923)"><svg viewBox="0 0 108.2400884947834 87.05395095367848" height="87.05395095367848" width="108.2400884947834"><g><svg xmlns="http://www.w3.org/2000/svg" xmlns:xlink="http://www.w3.org/1999/xlink" version="1.1" x="0" y="0" viewBox="0 9.78600025177002 100.0003433227539 80.42699432373047" enable-background="new 0 0 100 100" xml:space="preserve" width="108.2400884947834" height="87.05395095367848" class="icon-icon-0" data-fill-palette-color="quaternary" id="icon-0"><path d="M49.942 52.994c13.552-0.488 27.103-0.977 40.653-1.465-2.527-4.177-3.159-7.831-7.989-8.461-7.229-0.94-14.458-1.883-21.688-2.826-14.023-1.827-28.05-3.654-42.075-5.48C20.101 36.792 39.724 53.361 49.942 52.994z" fill="#000000" data-fill-palette-color="quaternary"></path><path d="M0 9.786c4.391 7.257 26.615 23.072 32.953 23.886 17.33 2.231 34.657 4.46 51.986 6.688-3.393-5.607-4.18-9.35-10.312-10.959-8.904-2.341-17.812-4.683-26.717-7.023C31.94 18.182 15.97 13.984 0 9.786z" fill="#000000" data-fill-palette-color="quaternary"></path><path d="M63.108 66.207c10.413-2.219 20.826-4.439 31.241-6.66-2.028-3.346-2.034-5.359-5.827-5.189-6.158 0.273-12.314 0.549-18.471 0.822-11.343 0.506-22.686 1.014-34.028 1.518C37.298 58.064 54.94 67.947 63.108 66.207z" fill="#000000" data-fill-palette-color="quaternary"></path><path d="M87.682 90.213c5.725-3.719 7.262-7.721 10.519-13.807 3.651-6.824 1.257-7.844-2.821-14.596-0.417-0.688-5.842 0.232-6.453 0.904-0.745 0.818-0.248 5.455-0.294 6.496C88.315 76.211 87.998 83.213 87.682 90.213z" fill="#000000" data-fill-palette-color="quaternary"></path><path d="M86.35 63.447c-3.795 0.809-8.604 0.191-9.572 4.229-1.373 5.736-2.746 11.475-4.12 17.211C81.904 82.678 86.028 71.582 86.35 63.447z" fill="#000000" data-fill-palette-color="quaternary"></path><path d="M74.666 66.121c-9.148 1.953-8.956 4.611-12.879 13.18C68.007 78.711 73.811 71.941 74.666 66.121z" fill="#000000" data-fill-palette-color="quaternary"></path></svg></g></svg></g></svg></g></svg></g></svg></g><defs></defs></svg><rect width="512" height="320" fill="none" stroke="none" visibility="hidden"></rect></g></svg></g></svg>